<svg xmlns="http://www.w3.org/2000/svg" viewBox="0 0 64 64" width="64" height="64">
  <defs>
    <linearGradient id="nuberush-icon-bg" x1="8" y1="6" x2="58" y2="60" gradientUnits="userSpaceOnUse">
      <stop offset="0" stop-color="#FF8B4A"/>
      <stop offset="1" stop-color="#FF6B2C"/>
    </linearGradient>
    <filter id="nuberush-icon-glow" x="-20%" y="-20%" width="140%" height="140%">
      <feDropShadow dx="0" dy="8" stdDeviation="6" flood-color="#FF6B2C" flood-opacity="0.35"/>
    </filter>
  </defs>
  <rect x="4" y="4" width="56" height="56" rx="16" fill="url(#nuberush-icon-bg)" filter="url(#nuberush-icon-glow)"/>
  <path fill="none" stroke="#FFFFFF" stroke-width="3.6" stroke-linecap="round" stroke-linejoin="round" d="M28.5 38.5A2.5 2.5 0 0 0 31 36c0-1.38-.5-2-1-3-1.072-2.143-.224-4.054 2-6 .5 2.5 2 4.9 4 6.5 2 1.6 3 3.5 3 5.5a7 7 0 1 1-14 0c0-1.153.433-2.294 1-3a2.5 2.5 0 0 0 2.5 2.5z"/>
</svg>
